<svg version="1.1"
  xmlns="http://www.w3.org/2000/svg"
  xmlns:xlink="http://www.w3.org/1999/xlink" x="0px" y="0px" viewBox="0 0 51 10" style="enable-background:new 0 0 51 10;" xml:space="preserve">
  <path d="M49.03,4.11c-0.74-0.44-1.48-0.88-2.22-1.32c-0.67-0.4-1.34-0.8-2.01-1.2c-0.55-0.33-1.06,0.53-0.5,0.86
	c1.13,0.67,2.26,1.35,3.39,2.02H2.55c-0.28,0-0.5,0.22-0.5,0.5c0,0.27,0.22,0.5,0.5,0.5h45.13c-0.52,0.31-1.04,0.62-1.55,0.93
	c-0.61,0.36-1.22,0.73-1.83,1.09c-0.55,0.33-0.05,1.19,0.5,0.86c1.35-0.81,2.71-1.61,4.06-2.42c0.28-0.17,0.56-0.31,0.68-0.64
	C49.74,4.78,49.45,4.36,49.03,4.11z"/>
</svg>
